HIERARCHY
ROOT Hips
{
  OFFSET 0.0000 0.0000 0.0000
  CHANNELS 6 Xposition Yposition Zposition Zrotation Xrotation Yrotation
  JOINT LeftHip
  {
    OFFSET 5.5000 0.0000 0.0000
    CHANNELS 3 Zrotation Xrotation Yrotation
    JOINT LeftKnee
    {
      OFFSET -0.0000 -17.5000 -0.0000
      CHANNELS 3 Zrotation Xrotation Yrotation
      JOINT LeftAnkle
      {
        OFFSET 0.0000 -17.0000 -0.0000
        CHANNELS 3 Zrotation Xrotation Yrotation
        End Site
        {
            OFFSET -0.0000 -4.7000 -2.0000
        }
      }
    }
  }
  JOINT RightHip
  {
    OFFSET -5.5000 0.0000 0.0000
    CHANNELS 3 Zrotation Xrotation Yrotation
    JOINT RightKnee
    {
      OFFSET -0.0000 -17.5000 0.0000
      CHANNELS 3 Zrotation Xrotation Yrotation
      JOINT RightAnkle
      {
        OFFSET 0.0000 -17.0000 -0.0000
        CHANNELS 3 Zrotation Xrotation Yrotation
        End Site
        {
            OFFSET 0.0000 -4.7000 -2.0000
        }
      }
    }
  }
  JOINT Chest
  {
    OFFSET -0.0000 3.0000 -1.0000
    CHANNELS 3 Zrotation Xrotation Yrotation
    JOINT LeftCollar
    {
      OFFSET -0.0000 18.0000 1.0000
      CHANNELS 3 Zrotation Xrotation Yrotation
      JOINT LeftShoulder
      {
        OFFSET 6.5000 0.0000 0.0000
        CHANNELS 3 Zrotation Xrotation Yrotation
        JOINT LeftElbow
        {
          OFFSET 0.0000 -11.0000 -0.0000
          CHANNELS 3 Zrotation Xrotation Yrotation
          JOINT LeftWrist
          {
            OFFSET 0.0000 -10.5000 0.0000
            CHANNELS 3 Zrotation Xrotation Yrotation
            End Site
            {
                OFFSET 0.0000 -6.0000 0.0000
            }
          }
        }
      }
    }
    JOINT RightCollar
    {
      OFFSET -0.0000 18.0000 1.0000
      CHANNELS 3 Zrotation Xrotation Yrotation
      JOINT RightShoulder
      {
        OFFSET -6.5000 0.0000 0.0000
        CHANNELS 3 Zrotation Xrotation Yrotation
        JOINT RightElbow
        {
          OFFSET 0.0000 -11.0000 0.0000
          CHANNELS 3 Zrotation Xrotation Yrotation
          JOINT RightWrist
          {
            OFFSET 0.0000 -10.5000 -0.0000
            CHANNELS 3 Zrotation Xrotation Yrotation
            End Site
            {
                OFFSET 0.0000 -6.0000 -0.0000
            }
          }
        }
      }
    }
    JOINT Neck
    {
      OFFSET -0.0000 18.0000 1.0000
      CHANNELS 3 Zrotation Xrotation Yrotation
      JOINT Head
      {
        OFFSET 0.0000 3.0000 0.0000
        CHANNELS 3 Zrotation Xrotation Yrotation
        End Site
        {
            OFFSET 0.0000 7.0000 0.0000
        }
      }
    }
  }
}
MOTION
Frames:	26
Frame Time:	0.033333
4.1322 38.6594 -0.1842 -2.17 -3.79 5.06 1.14 -16.59 8.34 0.00 35.06 1.44 2.72 -16.60 -1.95 -5.78 -7.37 -9.87 0.00 30.52 -2.84 6.59 -12.58 10.78 0.04 13.16 1.80 0.00 0.00 0.00 123.23 -60.07 96.45 0.00 -61.02 4.85 13.49 -2.50 -34.67 0.00 0.00 0.00 -114.10 -58.40 -79.51 -0.00 -62.97 -5.22 -17.09 -13.66 28.57 0.00 0.00 0.00 0.95 7.44 2.02 
4.0790 38.6605 -0.2291 -2.16 -3.73 4.88 1.22 -16.71 8.35 -0.00 35.07 1.55 2.60 -16.53 -1.92 -5.75 -7.64 -9.88 -0.00 30.71 -2.77 6.47 -12.53 10.82 -0.01 13.23 1.88 0.00 0.00 0.00 122.00 -58.67 93.02 0.00 -59.18 2.34 14.31 -4.78 -32.12 0.00 0.00 0.00 -115.41 -57.59 -78.59 -0.00 -63.01 -2.79 -18.49 -13.61 27.39 0.00 0.00 0.00 0.84 7.42 2.70 
4.0809 38.6585 -0.2667 -2.15 -3.66 4.73 1.22 -16.80 8.45 0.00 35.04 1.68 2.58 -16.48 -1.99 -5.78 -7.86 -9.79 -0.00 30.82 -2.66 6.44 -12.47 10.73 -0.06 13.29 2.01 0.00 0.00 0.00 121.29 -57.78 90.22 -0.00 -59.81 1.60 15.78 -3.94 -30.98 0.00 0.00 0.00 -116.01 -56.54 -76.68 0.00 -63.33 -1.29 -20.19 -12.51 25.99 0.00 0.00 0.00 0.81 7.02 3.11 
4.0803 38.6562 -0.2627 -2.14 -3.58 4.61 1.24 -16.86 8.58 -0.00 35.05 1.77 2.55 -16.52 -2.08 -5.79 -8.00 -9.67 -0.00 30.91 -2.56 6.42 -12.47 10.59 -0.10 13.36 2.12 0.00 0.00 0.00 120.86 -58.05 90.42 0.00 -61.89 3.48 16.95 -0.45 -31.26 0.00 0.00 0.00 -116.25 -56.49 -76.68 0.00 -65.00 -2.62 -21.24 -9.30 26.06 0.00 0.00 0.00 0.71 6.54 3.21 
4.0947 38.6536 -0.2994 -2.14 -3.50 4.48 1.22 -16.97 8.62 0.00 35.04 1.74 2.59 -16.47 -1.95 -5.84 -8.22 -9.64 -0.00 31.00 -2.54 6.43 -12.38 10.62 -0.11 13.41 2.11 0.00 0.00 0.00 121.26 -58.75 92.61 0.00 -63.24 5.44 18.00 3.14 -31.36 0.00 0.00 0.00 -116.27 -57.16 -78.68 -0.00 -66.07 -5.16 -21.46 -6.38 26.16 0.00 0.00 0.00 0.46 6.18 3.09 
4.0792 38.6537 -0.3020 -2.15 -3.42 4.32 1.23 -17.01 8.57 -0.00 34.98 1.67 2.57 -16.44 -1.69 -5.83 -8.33 -9.69 0.00 30.98 -2.53 6.39 -12.29 10.76 -0.11 13.43 2.08 0.00 0.00 0.00 121.88 -58.97 94.60 -0.00 -62.93 6.04 18.36 4.07 -31.42 0.00 0.00 0.00 -116.35 -57.67 -81.11 0.00 -65.81 -6.61 -20.77 -5.35 26.18 0.00 0.00 0.00 0.29 6.04 3.09 
4.0806 38.6595 -0.2994 -2.17 -3.33 4.15 1.23 -17.07 8.53 -0.00 34.97 1.62 2.58 -16.46 -1.43 -5.85 -8.44 -9.73 -0.00 30.98 -2.50 6.37 -12.21 10.89 -0.13 13.46 2.08 0.00 0.00 0.00 121.95 -58.53 94.61 -0.00 -61.51 5.08 17.99 2.21 -30.93 0.00 0.00 0.00 -116.55 -57.81 -82.26 0.00 -65.12 -6.30 -19.94 -6.09 26.42 0.00 0.00 0.00 0.19 6.07 3.28 
4.0826 38.6611 -0.2951 -2.19 -3.23 4.00 1.26 -17.13 8.58 -0.00 34.96 1.67 2.55 -16.48 -1.38 -5.85 -8.56 -9.71 -0.00 30.96 -2.44 6.36 -12.14 10.92 -0.16 13.49 2.18 0.00 0.00 0.00 121.18 -57.33 91.98 0.00 -59.44 2.84 17.39 -1.57 -29.19 0.00 0.00 0.00 -116.67 -57.45 -81.32 -0.00 -64.40 -4.59 -19.68 -8.32 26.42 0.00 0.00 0.00 0.17 5.84 3.58 
4.0819 38.6646 -0.2828 -2.20 -3.14 3.88 1.29 -17.15 8.69 -0.00 34.90 1.74 2.52 -16.49 -1.43 -5.83 -8.64 -9.61 -0.00 30.91 -2.36 6.34 -12.08 10.81 -0.20 13.50 2.35 0.00 0.00 0.00 120.67 -55.94 88.50 0.00 -58.52 0.87 17.53 -4.55 -27.97 0.00 0.00 0.00 -116.62 -56.54 -79.33 -0.00 -63.80 -2.75 -19.96 -10.65 26.20 0.00 0.00 0.00 0.24 5.47 3.82 
4.0613 38.6723 -0.2664 -2.21 -3.05 3.80 1.37 -17.15 8.87 0.00 34.81 1.82 2.45 -16.49 -1.63 -5.75 -8.69 -9.43 0.00 30.84 -2.26 6.29 -12.04 10.55 -0.24 13.48 2.58 0.00 0.00 0.00 120.49 -55.03 85.71 -0.00 -59.43 0.53 18.13 -5.29 -28.09 0.00 0.00 0.00 -116.18 -55.74 -76.96 0.00 -63.66 -1.93 -20.49 -11.72 26.18 0.00 0.00 0.00 0.41 5.07 3.98 
4.0239 38.6834 -0.2769 -2.20 -2.97 3.76 1.47 -17.17 9.04 0.00 34.68 1.86 2.38 -16.40 -1.81 -5.65 -8.78 -9.26 0.00 30.77 -2.18 6.22 -11.98 10.28 -0.26 13.44 2.74 0.00 0.00 0.00 120.20 -55.42 86.11 0.00 -61.41 2.99 18.25 -3.91 -30.16 0.00 0.00 0.00 -115.57 -55.94 -76.39 -0.00 -64.93 -3.53 -20.75 -10.50 27.11 0.00 0.00 0.00 0.41 4.76 3.89 
4.0084 38.6962 -0.3235 -2.20 -2.91 3.72 1.51 -17.23 9.14 -0.00 34.52 1.81 2.38 -16.24 -1.81 -5.60 -8.90 -9.17 0.00 30.70 -2.14 6.18 -11.83 10.13 -0.26 13.38 2.80 0.00 0.00 0.00 120.34 -56.27 88.14 0.00 -63.02 5.29 18.31 -2.04 -31.74 0.00 0.00 0.00 -114.77 -56.64 -76.97 -0.00 -65.68 -5.59 -20.34 -9.75 28.11 0.00 0.00 0.00 0.36 4.71 3.71 
4.0124 38.7061 -0.3246 -2.21 -2.86 3.67 1.51 -17.25 9.16 -0.00 34.47 1.71 2.42 -16.22 -1.69 -5.60 -8.94 -9.15 -0.00 30.66 -2.13 6.18 -11.76 10.10 -0.26 13.32 2.81 0.00 0.00 0.00 120.49 -56.77 90.11 -0.00 -63.23 6.30 17.91 -2.09 -33.01 0.00 0.00 0.00 -114.18 -57.33 -77.90 -0.00 -65.80 -6.79 -19.37 -10.35 29.42 0.00 0.00 0.00 0.32 4.97 3.60 
4.0242 38.7096 -0.3090 -2.22 -2.81 3.62 1.50 -17.24 9.18 0.00 34.44 1.66 2.44 -16.24 -1.61 -5.61 -8.93 -9.14 0.00 30.60 -2.12 6.20 -11.71 10.10 -0.26 13.28 2.83 0.00 0.00 0.00 120.09 -56.19 89.22 -0.00 -62.30 4.76 17.38 -4.40 -31.98 0.00 0.00 0.00 -113.97 -57.58 -78.53 0.00 -65.74 -6.62 -17.96 -12.13 30.90 0.00 0.00 0.00 0.37 5.27 3.67 
4.0418 38.7144 -0.2720 -2.23 -2.77 3.59 1.48 -17.18 9.20 -0.00 34.37 1.63 2.46 -16.28 -1.55 -5.62 -8.85 -9.10 -0.00 30.47 -2.12 6.24 -11.66 10.08 -0.26 13.23 2.89 0.00 0.00 0.00 119.81 -54.80 85.89 0.00 -61.49 1.92 17.63 -6.94 -29.51 0.00 0.00 0.00 -114.03 -57.28 -77.75 0.00 -65.63 -5.20 -17.44 -13.88 31.25 0.00 0.00 0.00 0.43 5.42 3.79 
4.0747 38.7217 -0.2181 -2.23 -2.74 3.58 1.45 -17.08 9.29 0.00 34.33 1.64 2.49 -16.36 -1.63 -5.64 -8.73 -8.99 0.00 30.36 -2.08 6.32 -11.66 9.94 -0.29 13.18 3.04 0.00 0.00 0.00 119.76 -53.53 82.18 -0.00 -62.03 0.43 18.47 -8.25 -28.33 0.00 0.00 0.00 -113.45 -56.95 -75.84 -0.00 -65.28 -4.12 -17.55 -15.37 31.37 0.00 0.00 0.00 0.52 5.55 4.05 
4.0975 38.7253 -0.1531 -2.21 -2.72 3.61 1.43 -16.98 9.40 0.00 34.32 1.68 2.49 -16.48 -1.80 -5.64 -8.60 -8.85 0.00 30.29 -2.06 6.39 -11.71 9.76 -0.30 13.14 3.19 0.00 0.00 0.00 119.44 -53.25 80.64 -0.00 -63.66 1.64 18.67 -8.01 -29.56 0.00 0.00 0.00 -112.21 -57.10 -74.16 0.00 -65.89 -4.55 -18.09 -15.04 31.50 0.00 0.00 0.00 0.60 5.54 4.11 
4.1174 38.7265 -0.1032 -2.20 -2.72 3.65 1.41 -16.89 9.48 -0.00 34.31 1.67 2.51 -16.57 -1.89 -5.65 -8.49 -8.75 0.00 30.25 -2.09 6.45 -11.75 9.65 -0.31 13.08 3.28 0.00 0.00 0.00 119.03 -53.97 81.78 0.00 -64.89 4.35 18.17 -7.14 -31.77 0.00 0.00 0.00 -110.57 -57.93 -74.02 -0.00 -66.73 -6.33 -18.21 -13.96 31.89 0.00 0.00 0.00 0.56 5.73 4.01 
4.1741 38.7258 -0.0562 -2.19 -2.74 3.67 1.30 -16.80 9.46 0.00 34.33 1.58 2.62 -16.67 -1.78 -5.75 -8.36 -8.74 0.00 30.22 -2.16 6.59 -11.77 9.70 -0.28 13.02 3.25 0.00 0.00 0.00 118.71 -54.81 83.80 -0.00 -64.66 6.23 16.93 -8.03 -34.38 0.00 0.00 0.00 -108.71 -58.58 -73.88 0.00 -66.51 -7.45 -17.66 -14.56 32.15 0.00 0.00 0.00 0.44 6.00 3.71 
4.2458 38.7219 -0.0433 -2.19 -2.75 3.67 1.16 -16.74 9.37 0.00 34.30 1.47 2.77 -16.70 -1.54 -5.88 -8.27 -8.79 0.00 30.14 -2.22 6.73 -11.68 9.83 -0.26 12.99 3.14 0.00 0.00 0.00 118.12 -55.06 84.30 -0.00 -63.54 6.13 15.61 -10.62 -35.84 0.00 0.00 0.00 -107.26 -58.92 -73.71 0.00 -66.17 -7.57 -16.48 -16.20 32.85 0.00 0.00 0.00 0.30 6.22 3.47 
4.2940 38.7232 0.0281 -2.19 -2.77 3.64 1.05 -16.57 9.25 -0.00 34.24 1.39 2.84 -16.80 -1.30 -5.96 -8.03 -8.88 -0.00 29.95 -2.28 6.83 -11.63 10.02 -0.25 12.97 3.04 0.00 0.00 0.00 117.57 -54.25 82.07 0.00 -62.37 3.80 15.44 -13.38 -34.22 0.00 0.00 0.00 -106.40 -58.77 -72.25 -0.00 -66.14 -6.28 -16.02 -17.94 32.76 0.00 0.00 0.00 0.21 6.23 3.41 
4.2952 38.7298 0.0268 -2.20 -2.78 3.62 1.04 -16.54 9.19 -0.00 34.20 1.39 2.84 -16.78 -1.21 -5.96 -7.99 -8.93 -0.00 29.89 -2.29 6.83 -11.55 10.07 -0.27 12.96 3.06 0.00 0.00 0.00 117.64 -53.18 78.92 -0.00 -62.70 1.83 16.38 -14.39 -32.76 0.00 0.00 0.00 -105.44 -58.27 -69.72 0.00 -66.29 -4.72 -16.49 -19.11 32.14 0.00 0.00 0.00 0.25 6.24 3.67 
4.2959 38.7339 0.0275 -2.22 -2.80 3.62 1.07 -16.51 9.24 -0.00 34.18 1.48 2.81 -16.78 -1.37 -5.93 -7.95 -8.89 0.00 29.84 -2.28 6.84 -11.50 9.99 -0.34 12.96 3.20 0.00 0.00 0.00 117.39 -52.98 77.47 -0.00 -64.42 2.70 16.79 -13.46 -33.29 0.00 0.00 0.00 -103.86 -58.37 -66.89 0.00 -67.74 -4.64 -17.82 -17.73 31.39 0.00 0.00 0.00 0.32 6.38 3.99 
4.2875 38.7371 0.0052 -2.23 -2.82 3.64 1.12 -16.52 9.34 0.00 34.15 1.58 2.78 -16.73 -1.58 -5.88 -7.96 -8.80 -0.00 29.83 -2.27 6.83 -11.45 9.84 -0.38 12.95 3.30 0.00 0.00 0.00 117.23 -53.93 79.09 0.00 -65.88 5.35 16.43 -11.65 -34.92 0.00 0.00 0.00 -102.06 -58.93 -65.79 -0.00 -69.98 -5.88 -19.24 -14.29 29.92 0.00 0.00 0.00 0.32 6.45 3.94 
4.2685 38.7394 -0.0501 -2.24 -2.84 3.66 1.17 -16.59 9.38 0.00 34.14 1.59 2.76 -16.62 -1.66 -5.84 -8.06 -8.77 0.00 29.88 -2.32 6.81 -11.35 9.79 -0.38 12.95 3.26 0.00 0.00 0.00 117.41 -55.10 82.11 -0.00 -66.18 7.30 15.42 -11.01 -36.89 0.00 0.00 0.00 -100.54 -59.26 -65.34 -0.00 -70.89 -6.69 -19.97 -12.00 27.97 0.00 0.00 0.00 0.27 6.54 3.57 
4.2542 38.7404 -0.1077 -2.26 -2.86 3.64 1.19 -16.67 9.29 0.00 34.13 1.48 2.79 -16.50 -1.45 -5.82 -8.15 -8.87 0.00 29.91 -2.35 6.77 -11.23 9.88 -0.34 12.95 3.08 0.00 0.00 0.00 117.08 -54.97 81.99 -0.00 -65.08 5.85 14.91 -12.81 -35.70 0.00 0.00 0.00 -100.41 -59.14 -65.17 0.00 -70.93 -6.21 -19.42 -12.26 27.42 0.00 0.00 0.00 0.25 6.62 3.16 
